<svg version="1.2" xmlns="http://www.w3.org/2000/svg" viewBox="0 0 44 45" width="43" height="44"><style>.a{fill:#252422}</style><path class="a" d="m33.2 40.6l-0.9-1.1c0.8-0.7 1.6-1.5 2.2-2.2 1.1-1.3 3.6-4.6 3.6-9.3 0-3.8-1.7-6.2-2.7-7.2-0.7-0.6-2.3-2-4.8-2-0.2 0-1.2 0-2 0.3-0.6 0.3-1 0.6-1.9 1.4-0.2 0.2-0.3 0.3-0.4 0.4 1.1-0.1 2.5-0.4 3.6-0.4 0.9 0 2.4 0.2 4 1.7 0 0.1 0.5 0.6 0.7 1 0.6 0.7 1.3 2.5 1.3 4.9 0 1.5-0.2 4.4-2.5 7.4-0.8 1-2.1 2.2-2.3 2.4-0.7 0.6-2.4 1.9-4.9 2.8-1.3 0.5-2 0.7-2.7 0.7-1.1 0-2.9-0.5-3-0.5-2.1-0.5-4.2-1-6.3-1.7-0.1 0-3.6-1.2-5.6-1.2-1.6 0-2.7 0.6-4 1.3 0.3 0.7 0.9 0.9 0.9 2.3 0 2.2-1.5 2.8-2.4 2.8-0.6 0-2.2-0.4-2.2-2.3 0-0.2 0.1-0.8 0.3-1.4 0.5-0.9 1.4-1.7 2.2-2.4 1.9-1.6 3-2.2 5.2-3.5 0.9-0.5 1.7-1 2.6-1.4 1-0.6 1.5-0.9 2-0.9 0.6 0 3.4 0.9 4 1.1 0.8 0.2 1.7 0.6 2.6 0.9 1.3 0.4 2.5 0.8 3.7 1.3 1.5 0.6 3.2 1.1 3.6 1.1 0.4 0 0.8-0.2 1.3-0.7 0.8-0.8 2.1-3.2 2.1-6.3 0-0.5 0-1.7-0.5-3-0.4-1.2-1.1-3.2-4.2-3.7-0.1 0-0.9-0.1-1.6-0.1-0.2 0-0.4 0-0.6 0-1.4 1.2-2.9 2.4-4.3 3.5-0.9 0.8-1.9 1.6-2.9 2.4-0.6 0.7-1.2 1.2-2 1.2-0.9 0-4.8-0.7-7.6-2.9-0.4-0.3-0.5-0.4-1.1-1-1-1-1.3-1.5-1.6-2.1-0.5-0.8-0.6-1.3-0.8-1.7-0.1-0.5-0.4-1.6-0.4-3 0-4.4 3-7.9 3.8-8.8q0.5-0.6 1.1-1.3c2-1.9 4.8-3.9 5.4-4.2 0.7-0.5 1.4-0.9 2.1-1.4l0.8 1.2c-0.4 0.2-2.9 2.2-4.5 4-2.8 3.3-3.1 6.3-3.1 8 0 1.6 0.2 2.9 1.1 4.3 0.1 0.3 0.4 0.7 0.6 0.9 0.9 1.1 3.2 2.9 6.9 2.9 0.8 0 1-0.1 1.4-0.2l2.4-1.9c-1.1 0.2-1.5 0.3-2.6 0.3-0.6 0-2.6 0-4.4-1.2-1.1-0.7-2.9-2.4-2.9-5.7 0-1.7 0.4-4.6 3.2-7.5 1.2-1.3 2.3-2 2.9-2.4 0.7-0.5 2.2-1.4 4.4-2.3 0.9-0.3 3.1-1 4-1 1.3 0 2.2 0.4 4.5 1.2 1.1 0.4 2.1 0.8 3.2 1.2 1.4 0.5 2.7 1 4.3 1 1.1 0 1.6-0.3 1.9-0.7 0.2-0.2 0.5-0.6 0.5-1.2 0-0.7-0.3-0.9-0.6-1.5-0.1-0.1-0.2-0.4-0.2-0.9 0-1 0.7-1.8 1.7-1.8 0.8 0 2 0.5 2 2.3 0 0.8-0.3 1.9-1.2 3.3-1.3 2-4.4 4.7-6.2 6.2-0.6 0.5-0.9 0.6-1.2 0.6-0.6 0-1.4-0.8-2.4-1.5q-1-0.7-2.1-1.2c-3.4-2.1-6.9-2.7-8.3-2.7-1.1 0-2.4 0.4-3.7 2.4-0.5 0.8-1.4 2.2-1.4 4.5 0 4.6 4.1 6.2 5.4 6.5 0.5 0.1 1.3 0.2 1.4 0.2 1.4-1.1 2.8-2.3 4.3-3.4 0.7-0.6 1.3-1.1 2-1.8 0.3-0.2 0.7-0.5 1-0.8 0.5-0.6 1.1-1 1.8-1 0.5 0 2.7 0.4 3.1 0.5 1.5 0.3 3.1 1.2 4.4 2.2 0.5 0.4 1.1 1 1.6 1.5 0.9 1 2.6 3.3 2.6 7 0 1.4-0.3 3.9-2.2 6.9-1.4 2-2.8 3.4-4.5 5.1-1.3 1.2-2.7 2.2-4 3.3z"/></svg>